<svg width="37" height="36" viewBox="0 0 37 36" fill="none" xmlns="http://www.w3.org/2000/svg">
<g clip-path="url(#clip0)">
<path d="M36.4561 18C36.4561 8.05887 28.3972 0 18.4561 0C8.51492 0 0.456055 8.05887 0.456055 18C0.456055 26.9842 7.03836 34.431 15.6436 35.7813V23.2031H11.0732V18H15.6436V14.0344C15.6436 9.52313 18.3309 7.03125 22.4424 7.03125C24.4112 7.03125 26.4717 7.38281 26.4717 7.38281V11.8125H24.202C21.9661 11.8125 21.2686 13.2001 21.2686 14.625V18H26.2607L25.4627 23.2031H21.2686V35.7813C29.8738 34.431 36.4561 26.9842 36.4561 18Z" fill="white"/>
</g>
<defs>
<clipPath id="clip0">
<rect width="36" height="36" fill="white" transform="translate(0.456055)"/>
</clipPath>
</defs>
</svg>
