<svg width="37" height="36" viewBox="0 0 37 36" fill="none" xmlns="http://www.w3.org/2000/svg">
<g clip-path="url(#clip0)">
<path d="M18.4561 3.24141C23.2654 3.24141 23.835 3.2625 25.7264 3.34687C27.4842 3.42422 28.4334 3.71953 29.0662 3.96563C29.9029 4.28906 30.5076 4.68281 31.1334 5.30859C31.7662 5.94141 32.1529 6.53906 32.4764 7.37578C32.7225 8.00859 33.0178 8.96484 33.0951 10.7156C33.1795 12.6141 33.2006 13.1836 33.2006 17.9859C33.2006 22.7953 33.1795 23.3648 33.0951 25.2563C33.0178 27.0141 32.7225 27.9633 32.4764 28.5961C32.1529 29.4328 31.7592 30.0375 31.1334 30.6633C30.5006 31.2961 29.9029 31.6828 29.0662 32.0063C28.4334 32.2523 27.4771 32.5477 25.7264 32.625C23.8279 32.7094 23.2584 32.7305 18.4561 32.7305C13.6467 32.7305 13.0771 32.7094 11.1857 32.625C9.42793 32.5477 8.47871 32.2523 7.8459 32.0063C7.00918 31.6828 6.40449 31.2891 5.77871 30.6633C5.1459 30.0305 4.75918 29.4328 4.43574 28.5961C4.18965 27.9633 3.89434 27.007 3.81699 25.2563C3.73262 23.3578 3.71152 22.7883 3.71152 17.9859C3.71152 13.1766 3.73262 12.607 3.81699 10.7156C3.89434 8.95781 4.18965 8.00859 4.43574 7.37578C4.75918 6.53906 5.15293 5.93438 5.77871 5.30859C6.41152 4.67578 7.00918 4.28906 7.8459 3.96563C8.47871 3.71953 9.43496 3.42422 11.1857 3.34687C13.0771 3.2625 13.6467 3.24141 18.4561 3.24141ZM18.4561 0C13.5693 0 12.9576 0.0210937 11.0381 0.105469C9.12559 0.189844 7.81074 0.499219 6.67168 0.942187C5.4834 1.40625 4.47793 2.01797 3.47949 3.02344C2.47402 4.02188 1.8623 5.02734 1.39824 6.20859C0.955273 7.35469 0.645898 8.6625 0.561523 10.575C0.477148 12.5016 0.456055 13.1133 0.456055 18C0.456055 22.8867 0.477148 23.4984 0.561523 25.418C0.645898 27.3305 0.955273 28.6453 1.39824 29.7844C1.8623 30.9727 2.47402 31.9781 3.47949 32.9766C4.47793 33.975 5.4834 34.5938 6.66465 35.0508C7.81074 35.4938 9.11856 35.8031 11.0311 35.8875C12.9506 35.9719 13.5623 35.993 18.449 35.993C23.3357 35.993 23.9475 35.9719 25.867 35.8875C27.7795 35.8031 29.0943 35.4938 30.2334 35.0508C31.4147 34.5938 32.4201 33.975 33.4186 32.9766C34.417 31.9781 35.0357 30.9727 35.4928 29.7914C35.9357 28.6453 36.2451 27.3375 36.3295 25.425C36.4139 23.5055 36.435 22.8938 36.435 18.007C36.435 13.1203 36.4139 12.5086 36.3295 10.5891C36.2451 8.67656 35.9357 7.36172 35.4928 6.22266C35.0498 5.02734 34.4381 4.02188 33.4326 3.02344C32.4342 2.025 31.4287 1.40625 30.2475 0.949219C29.1014 0.50625 27.7936 0.196875 25.8811 0.1125C23.9545 0.0210938 23.3428 0 18.4561 0Z" fill="white"/>
<path d="M18.4561 8.75391C13.3514 8.75391 9.20996 12.8953 9.20996 18C9.20996 23.1047 13.3514 27.2461 18.4561 27.2461C23.5607 27.2461 27.7021 23.1047 27.7021 18C27.7021 12.8953 23.5607 8.75391 18.4561 8.75391ZM18.4561 23.9977C15.1443 23.9977 12.4584 21.3117 12.4584 18C12.4584 14.6883 15.1443 12.0023 18.4561 12.0023C21.7678 12.0023 24.4537 14.6883 24.4537 18C24.4537 21.3117 21.7678 23.9977 18.4561 23.9977Z" fill="white"/>
<path d="M30.2264 8.38833C30.2264 9.58365 29.2561 10.5469 28.0678 10.5469C26.8725 10.5469 25.9092 9.57662 25.9092 8.38833C25.9092 7.19302 26.8795 6.22974 28.0678 6.22974C29.2561 6.22974 30.2264 7.20005 30.2264 8.38833Z" fill="white"/>
</g>
<defs>
<clipPath id="clip0">
<rect width="36" height="36" fill="white" transform="translate(0.456055)"/>
</clipPath>
</defs>
</svg>
