<svg width="81" height="80" viewBox="0 0 81 80" fill="none" xmlns="http://www.w3.org/2000/svg">
<g clip-path="url(#clip0)">
<rect width="80" height="80" transform="translate(0.5 -0.000488281)" fill="black"/>
<path fill-rule="evenodd" clip-rule="evenodd" d="M55.9511 42.1923C54.1786 41.2578 51.3465 39.3718 48.6476 35.9204C45.5641 31.977 42.5358 25.8404 41.5639 16.4127C45.588 16.0931 50.945 15.0492 55.9391 11.8984C60.9486 15.079 66.2223 16.1133 70.3237 16.422C69.3544 25.9814 66.3207 32.1173 63.2441 36.0223C60.558 39.4314 57.7367 41.2693 55.9511 42.1923ZM70.5579 13.3055C66.2967 12.9847 60.8432 11.8297 55.9423 8.0957C51.0865 11.7954 45.5072 12.9632 41.3262 13.2965C40.1615 13.3893 39.1052 13.4174 38.2034 13.4174C38.2571 14.4927 38.3354 15.5339 38.436 16.5418C40.5493 37.7029 52.5558 44.2321 55.9423 45.6431C59.3307 44.2313 71.349 37.9651 73.4522 16.5419C73.5511 15.5343 73.6281 14.4931 73.6812 13.4174C72.7471 13.4174 71.695 13.3911 70.5579 13.3055Z" fill="white"/>
<path d="M49.7767 57.7936C49.7767 60.7534 52.2142 63.1908 55.1739 63.1908C56.2185 63.1908 57.089 62.8426 57.7854 62.4944C56.5667 61.2757 55.8703 59.7087 55.8703 57.7936C55.8703 55.8785 56.5667 54.4857 57.7854 53.0929C57.089 52.5706 56.0444 52.3965 55.1739 52.3965C52.2142 52.3965 49.7767 54.8339 49.7767 57.7936Z" fill="white"/>
<path d="M62.4859 63.1908C65.4666 63.1908 67.883 60.7744 67.883 57.7936C67.883 54.8129 65.4666 52.3965 62.4859 52.3965C59.5051 52.3965 57.0887 54.8129 57.0887 57.7936C57.0887 60.7744 59.5051 63.1908 62.4859 63.1908Z" fill="white"/>
<path fill-rule="evenodd" clip-rule="evenodd" d="M13.8813 30.5571C11.2925 30.5571 9.19385 32.6558 9.19385 35.2446V65.1527C9.19385 67.7415 11.2925 69.8402 13.8814 69.8402H67.6277C70.2166 69.8402 72.3152 67.7415 72.3152 65.1527V35.2446C72.3152 33.1207 70.9014 31.3229 68.9602 30.7488L69.8464 27.7521C73.079 28.7081 75.4402 31.6986 75.4402 35.2446V65.1527C75.4402 69.4674 71.9425 72.9652 67.6277 72.9652H13.8814C9.56663 72.9652 6.06885 69.4674 6.06885 65.1527V35.2446C6.06885 30.9299 9.56663 27.4321 13.8813 27.4321H36.4981C37.3611 27.4321 38.0606 28.1317 38.0606 28.9946C38.0606 29.8576 37.3611 30.5571 36.4981 30.5571H13.8813Z" fill="white"/>
<path fill-rule="evenodd" clip-rule="evenodd" d="M12.8884 43.3071C12.8884 42.4442 13.588 41.7446 14.4509 41.7446H22.1134C22.9763 41.7446 23.6759 42.4442 23.6759 43.3071C23.6759 44.1701 22.9763 44.8696 22.1134 44.8696H14.4509C13.588 44.8696 12.8884 44.1701 12.8884 43.3071Z" fill="white"/>
<path fill-rule="evenodd" clip-rule="evenodd" d="M24.9259 43.3071C24.9259 42.4442 25.6254 41.7446 26.4884 41.7446H34.1508C35.0138 41.7446 35.7133 42.4442 35.7133 43.3071C35.7133 44.1701 35.0138 44.8696 34.1508 44.8696H26.4884C25.6254 44.8696 24.9259 44.1701 24.9259 43.3071Z" fill="white"/>
<path fill-rule="evenodd" clip-rule="evenodd" d="M36.9633 43.3071C36.9633 42.4442 37.6629 41.7446 38.5258 41.7446H40.0492C40.9122 41.7446 41.6117 42.4442 41.6117 43.3071C41.6117 44.1701 40.9122 44.8696 40.0492 44.8696H38.5258C37.6629 44.8696 36.9633 44.1701 36.9633 43.3071Z" fill="white"/>
</g>
<defs>
<clipPath id="clip0">
<rect width="80" height="80" fill="white" transform="translate(0.5 -0.000488281)"/>
</clipPath>
</defs>
</svg>
