<svg width="80" height="80" viewBox="0 0 80 80" fill="none" xmlns="http://www.w3.org/2000/svg">
<g clip-path="url(#clip0)">
<rect width="80" height="80" transform="translate(0 -0.000488281)" fill="black"/>
<g clip-path="url(#clip1)">
<path fill-rule="evenodd" clip-rule="evenodd" d="M49.4859 28.5339L65.5446 12.4752C65.9013 12.1186 66.4794 12.1186 66.8361 12.4752L68.1275 13.7666C68.4841 14.1232 68.4841 14.7014 68.1275 15.0581L52.0687 31.1168C51.7121 31.4734 51.1339 31.4734 50.7773 31.1168L49.4859 29.8254C49.1293 29.4688 49.1293 28.8905 49.4859 28.5339ZM13.8724 64.1474L29.9312 48.0887C30.2878 47.7321 30.866 47.7321 31.2226 48.0887L32.514 49.3801C32.8706 49.7367 32.8706 50.3149 32.514 50.6715L16.4553 66.7302C16.0987 67.0868 15.5205 67.0868 15.1639 66.7302L13.8724 65.4388C13.5158 65.0822 13.5158 64.504 13.8724 64.1474ZM36.4341 39.6027C36.4341 37.7304 37.5611 36.1213 39.1736 35.4168L39.1736 -2.08586C39.1736 -2.59019 39.5825 -2.99902 40.0868 -2.99902L41.9131 -2.99902C42.4175 -2.99902 42.8263 -2.59019 42.8263 -2.08586L42.8263 35.4168C44.4389 36.1213 45.5658 37.7304 45.5658 39.6027C45.5658 42.1244 43.5216 44.1685 41 44.1685C38.4783 44.1685 36.4341 42.1244 36.4341 39.6027ZM54.6974 41.429C54.1931 41.429 53.7843 41.0202 53.7843 40.5159L53.7843 38.6896C53.7843 38.1852 54.1931 37.7764 54.6974 37.7764L67.4818 37.7764C67.9861 37.7764 68.3949 38.1852 68.3949 38.6896L68.3949 40.5159C68.3949 41.0202 67.9861 41.429 67.4818 41.429L54.6974 41.429ZM14.5182 41.429C14.0138 41.429 13.605 41.0202 13.605 40.5159L13.605 38.6896C13.605 38.1852 14.0138 37.7764 14.5182 37.7764L27.3025 37.7764C27.8068 37.7764 28.2156 38.1852 28.2156 38.6896L28.2156 40.5159C28.2156 41.0202 27.8068 41.429 27.3025 41.429L14.5182 41.429ZM39.1736 53.3002C39.1736 52.7959 39.5825 52.387 40.0868 52.387L41.9131 52.387C42.4175 52.387 42.8263 52.7959 42.8263 53.3002L42.8263 66.0845C42.8263 66.5888 42.4175 66.9977 41.9131 66.9977L40.0868 66.9977C39.5825 66.9977 39.1736 66.5888 39.1736 66.0845L39.1736 53.3002ZM49.4859 50.6715C49.1293 50.3149 49.1293 49.7367 49.4859 49.3801L50.7773 48.0887C51.1339 47.7321 51.7121 47.7321 52.0687 48.0887L68.1275 64.1474C68.4841 64.504 68.4841 65.0822 68.1275 65.4388L66.8361 66.7302C66.4794 67.0868 65.9013 67.0868 65.5446 66.7302L49.4859 50.6715ZM13.8725 15.058C13.5158 14.7014 13.5158 14.1232 13.8725 13.7666L15.1639 12.4752C15.5205 12.1186 16.0987 12.1186 16.4553 12.4752L32.514 28.5339C32.8706 28.8905 32.8706 29.4688 32.514 29.8254L31.2226 31.1168C30.866 31.4734 30.2878 31.4734 29.9312 31.1168L13.8725 15.058Z" fill="white"/>
</g>
</g>
<defs>
<clipPath id="clip0">
<rect width="80" height="80" fill="white" transform="translate(0 -0.000488281)"/>
</clipPath>
<clipPath id="clip1">
<rect width="80" height="80" fill="white" transform="translate(1 -0.000488281)"/>
</clipPath>
</defs>
</svg>
