<svg width="80" height="80" viewBox="0 0 80 80" fill="none" xmlns="http://www.w3.org/2000/svg">
<rect width="80" height="80" transform="translate(0 -0.000488281)" fill="black"/>
<path d="M5.6785 39.9895C5.67986 46.2097 7.3716 52.3126 10.5729 57.6457C13.7741 62.9789 18.3645 67.3418 23.8534 70.2681C29.3422 73.1944 35.5231 74.5741 41.7354 74.2596C47.9476 73.9451 53.9576 71.9482 59.1228 68.4825L57.4637 66.0156C52.1288 69.5941 45.822 71.4444 39.3994 71.3154C32.9767 71.1863 26.7493 69.0842 21.5625 65.2942L22.8465 58.2467L25.7318 55.3613C25.8708 55.2252 25.9807 55.0623 26.0551 54.8826C26.1295 54.7028 26.1667 54.5099 26.1646 54.3154V47.5852C26.1745 47.2074 26.0356 46.8408 25.778 46.5643C25.5203 46.2878 25.1645 46.1234 24.7869 46.1065C21.6472 45.7683 18.6568 44.5896 16.1308 42.6945C14.3202 41.2519 12.9136 40.5738 11.5647 40.5305C10.5366 40.5366 9.53314 40.8452 8.67928 41.4178C8.67928 40.9417 8.64322 40.4584 8.64322 39.9751C8.64322 39.0085 8.69371 38.0491 8.78027 37.0897C10.8104 37.9242 12.9836 38.3554 15.1786 38.3593C15.4185 38.3586 15.6547 38.2999 15.867 38.1881C16.0793 38.0763 16.2614 37.9147 16.3977 37.7173C16.5284 37.5237 16.6122 37.3022 16.6422 37.0705C16.6723 36.8388 16.6478 36.6033 16.5708 36.3828C16.3741 35.7066 16.3104 34.9986 16.3832 34.2981C16.6049 32.3596 17.5194 30.5664 18.9584 29.2487C20.4325 27.7917 21.6322 26.0813 22.5002 24.1993C23.3263 22.4796 23.6561 20.5635 23.4524 18.6666C23.2586 17.1688 22.5677 15.7793 21.4903 14.7209C26.736 10.8652 33.0574 8.7488 39.5672 8.66879L37.3238 11.7345L28.9346 13.8985C28.6364 13.978 28.3697 14.1466 28.17 14.3818C27.2243 15.6022 26.5527 17.0119 26.2007 18.5151C25.6886 20.7657 25.7679 24.1344 29.0067 27.467L29.2592 27.8926L22.5723 34.3847C22.3927 34.5533 22.2593 34.7652 22.1848 35.0001C22.1103 35.235 22.0972 35.485 22.1468 35.7264L22.8248 39.2682C23.1001 40.716 23.8717 42.0225 25.0067 42.9626C26.1417 43.9028 27.569 44.4176 29.0428 44.4185H31.6108C32.8263 44.4205 33.9913 44.9047 34.8501 45.7648C35.7089 46.625 36.1913 47.7908 36.1913 49.0063V53.8032C36.1924 54.0128 36.2392 54.2195 36.3284 54.4091L40.5987 63.8515C40.716 64.1127 40.9066 64.3341 41.1473 64.4891C41.388 64.644 41.6686 64.7257 41.9548 64.7243C44.3353 64.7243 46.961 62.9787 49.1683 59.9418C51.1664 57.1647 52.3638 53.9331 52.3638 51.2857C52.3638 49.0496 53.655 46.5681 54.7442 44.8802C55.0497 44.4081 55.2547 43.8783 55.3466 43.3235C55.4384 42.7688 55.4151 42.2011 55.278 41.6558C55.1399 41.1067 54.8915 40.5914 54.548 40.1413C54.2045 39.6911 53.7731 39.3156 53.2799 39.0373C50.3441 37.3855 49.5001 32.8987 49.4929 32.8626C49.4412 32.6364 49.3382 32.4251 49.1918 32.245C49.0455 32.0649 48.8597 31.9208 48.6489 31.8239L38.3265 26.825C38.1231 26.7305 37.9016 26.6813 37.6773 26.6807H31.9787L31.4809 25.8223C31.4162 25.7148 31.3387 25.6155 31.2501 25.5266C29.3313 23.6078 28.6028 21.5087 29.0861 19.287C29.2953 18.3485 29.6742 17.4563 30.2042 16.6541L38.6006 14.49C38.931 14.4022 39.2213 14.2036 39.4229 13.9274L43.1451 8.81306C48.911 9.40152 54.4019 11.5733 59.0104 15.0882C63.6189 18.6032 67.1654 23.3242 69.2577 28.7293C66.6303 28.2728 64.1167 27.31 61.8567 25.8945C61.6341 25.7417 61.374 25.6528 61.1045 25.6374C60.835 25.6219 60.5664 25.6805 60.3278 25.8069C60.0893 25.9332 59.8899 26.1225 59.7512 26.3541C59.6125 26.5857 59.5399 26.8508 59.5412 27.1207V30.8501L55.9345 33.6994L57.7739 36.0365L61.9577 32.74C62.1329 32.5997 62.2744 32.4219 62.3718 32.2197C62.4692 32.0174 62.5199 31.7959 62.5203 31.5714V29.631C64.9506 30.835 67.5864 31.5693 70.2892 31.795C71.6734 36.9335 71.7305 42.3393 70.4551 47.5059H65.788C65.6 47.5059 65.4137 47.5426 65.2398 47.6141L61.6763 49.0568C61.4786 49.1361 61.3003 49.2571 61.1535 49.4114C61.0066 49.5658 60.8946 49.7499 60.8252 49.9512L57.7955 58.6795C57.6871 58.996 57.6887 59.3398 57.8 59.6553C57.9112 59.9708 58.1257 60.2395 58.4087 60.4179L63.321 63.5197C63.6179 63.7132 63.974 63.7947 64.3255 63.7498C64.677 63.7049 65.0011 63.5364 65.2398 63.2745C69.0236 59.1682 71.7484 54.2008 73.1778 48.8031C74.6072 43.4054 74.6981 37.7405 73.4426 32.2997C72.1871 26.8589 69.6232 21.8066 65.9731 17.5811C62.323 13.3555 57.6971 10.0843 52.4966 8.05123C47.2962 6.01815 41.6782 5.2846 36.1301 5.9142C30.5819 6.54379 25.2712 8.51753 20.6585 11.6642C16.0458 14.8109 12.2705 19.0354 9.66007 23.9714C7.04965 28.9074 5.68294 34.4058 5.6785 39.9895ZM37.3382 29.6454L46.7157 34.1899C46.932 35.0157 47.2118 35.8236 47.5525 36.6064C48.0994 37.8871 48.8605 39.0653 49.803 40.0905C50.3831 40.7146 51.0543 41.2473 51.794 41.6702C51.933 41.7454 52.0553 41.8481 52.1533 41.9721C52.2513 42.0962 52.3229 42.2389 52.3638 42.3916C52.4135 42.5442 52.4296 42.7057 52.4109 42.8651C52.3923 43.0245 52.3393 43.1779 52.2556 43.3149C50.3657 46.258 49.3702 48.9558 49.3702 51.329C49.3702 53.2983 48.3387 56.0033 46.7373 58.2323C45.4822 59.9779 44.0612 61.197 42.8349 61.6154L39.1632 53.5003V49.0279C39.1613 47.0255 38.365 45.1056 36.9491 43.6896C35.5331 42.2737 33.6132 41.4774 31.6108 41.4755H29.0428C28.2596 41.4727 27.5018 41.1977 26.8991 40.6977C26.2964 40.1976 25.8863 39.5035 25.739 38.7344L25.2125 35.986L30.8029 30.5543L31.7262 29.6454H37.3382ZM63.8404 60.3386L60.955 58.5352L63.3787 51.5671L66.0477 50.4995H69.5678C68.2754 54.1013 66.3342 57.436 63.8404 60.3386ZM9.79015 44.231C10.2735 43.8408 10.855 43.5912 11.4709 43.5097C12.0985 43.5097 13.029 44.029 14.2481 45.0028C16.8645 47.0147 19.9368 48.3501 23.1927 48.8909V53.7383L20.4227 56.5155C20.2065 56.7279 20.0626 57.003 20.0116 57.3017L18.9368 63.2023C13.5874 58.3638 10.0693 51.8293 8.97503 44.6999L9.79015 44.231ZM19.1676 16.5819C19.9214 17.2064 20.4047 18.0981 20.5165 19.0706C20.8483 21.4221 19.4129 24.596 16.8665 27.1424C13.7864 30.1937 13.3031 33.3099 13.4041 35.3008C11.949 35.1064 10.5328 34.6879 9.20586 34.0601C10.5168 27.2997 14.0146 21.1582 19.1604 16.5819H19.1676Z" fill="white"/>
</svg>
