<svg width="37" height="28" viewBox="0 0 37 28" fill="none" xmlns="http://www.w3.org/2000/svg">
<path d="M33.0494 17.5991C33.0509 18.8414 32.6639 20.0531 31.9426 21.0645C31.2212 22.0759 30.2016 22.8364 29.0265 23.2395C27.8514 23.6426 26.5797 23.6682 25.3894 23.3126C24.199 22.957 23.1497 22.238 22.3883 21.2564C21.5787 20.2161 21.1391 18.9356 21.1391 17.6174C21.1391 16.2992 21.5787 15.0186 22.3883 13.9784C23.1479 12.993 24.1972 12.2706 25.3887 11.9126C26.5802 11.5547 27.8539 11.5794 29.0307 11.983C30.2074 12.3867 31.2281 13.1492 31.9489 14.1632C32.6698 15.1771 33.0547 16.3916 33.0494 17.6356V17.5991Z" fill="#171717"/>
<path d="M34.9822 0.605481H2.01779C1.81825 0.604675 1.62052 0.643383 1.43601 0.719373C1.2515 0.795363 1.08386 0.907131 0.942762 1.04823C0.801662 1.18933 0.689894 1.35697 0.613904 1.54148C0.537914 1.72599 0.499206 1.92372 0.500012 2.12326V25.8957C0.499206 26.0952 0.537914 26.293 0.613904 26.4775C0.689894 26.662 0.801662 26.8296 0.942762 26.9707C1.08386 27.1118 1.2515 27.2236 1.43601 27.2996C1.62052 27.3756 1.81825 27.4143 2.01779 27.4135H34.9822C35.1818 27.4143 35.3795 27.3756 35.564 27.2996C35.7485 27.2236 35.9162 27.1118 36.0573 26.9707C36.1984 26.8296 36.3101 26.662 36.3861 26.4775C36.4621 26.293 36.5008 26.0952 36.5 25.8957V2.12326C36.5008 1.92372 36.4621 1.72599 36.3861 1.54148C36.3101 1.35697 36.1984 1.18933 36.0573 1.04823C35.9162 0.907131 35.7485 0.795363 35.564 0.719373C35.3795 0.643383 35.1818 0.604675 34.9822 0.605481ZM34.6714 25.5604H2.32866V7.81036H34.6714V25.5604ZM34.6714 5.39044H2.32866V2.43413H34.6714V5.39044Z" fill="#171717"/>
<path d="M19.1288 17.5998C19.1256 19.4244 19.7521 21.1942 20.9026 22.6103C20.0029 23.1883 18.9642 23.5134 17.8956 23.5514C16.8269 23.5894 15.7677 23.339 14.8293 22.8264C13.8908 22.3139 13.1076 21.5581 12.562 20.6384C12.0164 19.7188 11.7285 18.6692 11.7285 17.5998C11.7285 16.5305 12.0164 15.4809 12.562 14.5613C13.1076 13.6416 13.8908 12.8858 14.8293 12.3732C15.7677 11.8607 16.8269 11.6103 17.8956 11.6483C18.9642 11.6863 20.0029 12.0114 20.9026 12.5893C19.7521 14.0055 19.1256 15.7753 19.1288 17.5998Z" fill="#171717"/>
</svg>
