<svg width="37" height="26" viewBox="0 0 37 26" fill="none" xmlns="http://www.w3.org/2000/svg">
<path d="M36.5001 2.42911V6.50601H0.500137V2.42911C0.499131 2.18011 0.547433 1.93338 0.642256 1.70314C0.737079 1.4729 0.876546 1.26372 1.05262 1.08765C1.22868 0.91158 1.43787 0.772112 1.66811 0.67729C1.89834 0.582467 2.14508 0.534166 2.39407 0.535172H34.6062C34.8552 0.534166 35.1019 0.582467 35.3322 0.67729C35.5624 0.772112 35.7716 0.91158 35.9477 1.08765C36.1237 1.26372 36.2632 1.4729 36.358 1.70314C36.4528 1.93338 36.5011 2.18011 36.5001 2.42911Z" fill="#171717"/>
<path d="M0.500015 9.52344V23.5644C0.499009 23.8134 0.547311 24.0602 0.642134 24.2904C0.736956 24.5206 0.876424 24.7298 1.05249 24.9059C1.22856 25.082 1.43775 25.2214 1.66798 25.3162C1.89822 25.4111 2.14495 25.4594 2.39395 25.4584H34.6061C34.8551 25.4594 35.1018 25.4111 35.332 25.3162C35.5623 25.2214 35.7715 25.082 35.9475 24.9059C36.1236 24.7298 36.2631 24.5206 36.3579 24.2904C36.4527 24.0602 36.501 23.8134 36.5 23.5644V9.52344H0.500015ZM12.2896 21.6933C12.2906 21.7339 12.2835 21.7743 12.2686 21.8121C12.2538 21.8499 12.2316 21.8843 12.2032 21.9134C12.1748 21.9424 12.141 21.9655 12.1035 21.9813C12.0661 21.9971 12.0259 22.0052 11.9853 22.0052H3.88476C3.84068 22.0095 3.79617 22.0044 3.75421 21.9902C3.71226 21.976 3.6738 21.953 3.64142 21.9228C3.60904 21.8926 3.58346 21.8558 3.5664 21.8149C3.54934 21.774 3.54119 21.73 3.54248 21.6857V19.4039C3.54447 19.3225 3.5782 19.2451 3.63647 19.1882C3.69474 19.1314 3.77293 19.0996 3.85434 19.0996H11.9853C12.066 19.0996 12.1434 19.1317 12.2005 19.1887C12.2575 19.2458 12.2896 19.3232 12.2896 19.4039V21.6933Z" fill="#171717"/>
</svg>
