<svg width="20" height="20" viewBox="0 0 20 20" fill="none" xmlns="http://www.w3.org/2000/svg"><circle cx="10" cy="10" r="10" fill="#171717"/><path d="M7 9C7 8.44856 7.11934 7.9465 7.35802 7.49383C7.60494 7.03292 7.95885 6.67078 8.41975 6.40741C8.88066 6.1358 9.42798 6 10.0617 6C10.6626 6 11.1811 6.09877 11.6173 6.2963C12.0617 6.49383 12.4033 6.76955 12.642 7.12346C12.8807 7.47737 13 7.88066 13 8.33333C13 8.86831 12.8889 9.29218 12.6667 9.60494C12.4527 9.90946 12.1358 10.2058 11.716 10.4938C11.3457 10.7407 11.0823 10.9547 10.9259 11.1358C10.7778 11.3169 10.7037 11.5309 10.7037 11.7778V11.9383H9.07407V11.5926C9.07407 11.1235 9.17695 10.7572 9.38272 10.4938C9.59671 10.2305 9.93004 9.96708 10.3827 9.7037C10.6708 9.52263 10.8807 9.33745 11.0123 9.14815C11.144 8.95885 11.2099 8.74074 11.2099 8.49383C11.2099 8.19753 11.107 7.95885 10.9012 7.77778C10.6955 7.58848 10.4198 7.49383 10.0741 7.49383C9.67901 7.49383 9.36214 7.63374 9.12346 7.91358C8.88477 8.18519 8.76543 8.54733 8.76543 9H7ZM8.91358 13.7901C8.91358 13.5021 9.00823 13.2675 9.19753 13.0864C9.39506 12.8971 9.64198 12.8025 9.93827 12.8025C10.2346 12.8025 10.4774 12.8971 10.6667 13.0864C10.8642 13.2675 10.963 13.5021 10.963 13.7901C10.963 14.0782 10.8642 14.3169 10.6667 14.5062C10.4691 14.6955 10.2263 14.7901 9.93827 14.7901C9.65021 14.7901 9.40741 14.6955 9.20988 14.5062C9.01235 14.3169 8.91358 14.0782 8.91358 13.7901Z" fill="white"/></svg>