<svg width="146" height="32" viewBox="0 0 146 32" fill="none" xmlns="http://www.w3.org/2000/svg">
<path d="M0.0784551 13.3315H6.89328C7.18538 11.3854 7.85107 9.74415 8.89036 8.40792C10.3359 6.54932 12.2978 5.62003 14.7759 5.62003C16.605 5.62003 18.1243 6.1363 19.3339 7.16886C20.5729 8.17191 21.3842 9.55848 21.7677 11.3286H28.4056C28.1696 9.08645 27.4615 7.10985 26.2815 5.39877C25.1014 3.68768 23.5526 2.36012 21.635 1.41607C19.7174 0.472024 17.549 0 15.1299 0C12.0323 0 9.33288 0.649032 7.03176 1.9471C4.76015 3.24516 3.00481 5.089 1.76575 7.47862C0.876262 9.21421 0.313829 11.1652 0.0784551 13.3315Z" fill="white"/>
<path d="M30.593 13.3315C31.1027 12.0552 31.9627 11.004 33.1729 10.178C35.0315 8.87994 37.4949 8.23091 40.5631 8.23091C43.7787 8.23091 46.2569 8.93894 47.9974 10.355C48.9889 11.1482 49.7027 12.1404 50.1388 13.3315C43.5349 13.3315 37.19 13.3315 30.593 13.3315Z" fill="white"/>
<path d="M6.78756 17.2727H0C0.165549 19.8078 0.754133 22.0746 1.76575 24.0732C3.00481 26.4333 4.76015 28.2624 7.03176 29.5605C9.33288 30.8585 12.0323 31.5076 15.1299 31.5076C17.549 31.5076 19.7174 31.0355 21.635 30.0915C23.5526 29.1474 25.1014 27.8199 26.2815 26.1088C27.4615 24.3977 28.1696 22.4211 28.4056 20.179H21.7677C21.3842 21.9491 20.5729 23.3504 19.3339 24.383C18.1243 25.386 16.605 25.8875 14.7759 25.8875C12.2978 25.8875 10.3359 24.9582 8.89036 23.0996C7.69615 21.5399 6.99522 19.5976 6.78756 17.2727Z" fill="white"/>
<path fill-rule="evenodd" clip-rule="evenodd" d="M39.1409 17.2727H50.6526V24.5157C50.6526 25.0762 50.7706 25.4598 51.0066 25.6663C51.2426 25.8728 51.6114 25.976 52.1129 25.976H52.8209V31.2421H49.6348C46.7731 31.2421 45.3718 30.003 45.4308 27.5249C44.6048 28.8229 43.587 29.8112 42.3774 30.4898C41.1678 31.1683 39.7075 31.5076 37.9964 31.5076C35.4593 31.5076 33.409 30.9323 31.8454 29.7817C30.3113 28.6017 29.5443 26.9496 29.5443 24.8255C29.5443 22.4064 30.4293 20.5478 32.1994 19.2497C33.8462 18.0348 36.1601 17.3758 39.1409 17.2727ZM39.9435 21.4181H44.5015V21.8606C44.472 23.4242 43.9852 24.678 43.0412 25.622C42.0971 26.5366 40.8138 26.9938 39.1912 26.9938C38.1587 26.9938 37.3327 26.7578 36.7131 26.2858C36.1231 25.8138 35.8281 25.1795 35.8281 24.383C35.8281 23.4389 36.1821 22.7161 36.8901 22.2146C37.6277 21.6836 38.6455 21.4181 39.9435 21.4181Z" fill="white"/>
<path d="M54.8107 17.2727V31.2421H61.0502V20.0905C61.0502 19.0198 61.1917 18.0806 61.4748 17.2727H54.8107Z" fill="white"/>
<path d="M71.0244 17.2727V31.2421H76.4674L77.0869 28.1444C77.854 29.177 78.8275 30.003 80.0076 30.6225C81.1876 31.2126 82.5742 31.5076 84.1673 31.5076C86.1734 31.5076 87.973 31.0208 89.566 30.0472C91.1591 29.0737 92.3982 27.7019 93.2832 25.9318C94.1978 24.1617 94.6551 22.1261 94.6551 19.825C94.6551 18.9296 94.5892 18.0789 94.4576 17.2727H87.9551C88.203 18.0497 88.327 18.9152 88.327 19.8692C88.327 21.8163 87.8107 23.3947 86.7782 24.6042C85.7456 25.8138 84.3885 26.4186 82.707 26.4186C81.0254 26.4186 79.6831 25.8138 78.68 24.6042C77.677 23.3947 77.1754 21.8016 77.1754 19.825C77.1754 18.8848 77.2924 18.0341 77.5262 17.2727H71.0244Z" fill="white"/>
<path d="M82.3098 13.3315H71.0244V0.265512H77.2639V11.3728C79.0045 9.27821 81.2909 8.23091 84.123 8.23091C86.1586 8.23091 87.973 8.70293 89.566 9.64698C91.0548 10.5016 92.2343 11.7298 93.1047 13.3315H83.1044C82.974 13.3238 82.8415 13.3199 82.707 13.3199C82.5724 13.3199 82.44 13.3238 82.3098 13.3315Z" fill="white"/>
<path d="M96.5769 17.2727C96.4257 18.097 96.3501 18.9625 96.3501 19.8692C96.3501 22.1704 96.8369 24.206 97.8104 25.976C98.8135 27.7461 100.215 29.1179 102.014 30.0915C103.843 31.0355 105.953 31.5076 108.342 31.5076C110.732 31.5076 112.827 31.0355 114.626 30.0915C116.455 29.1179 117.857 27.7609 118.83 26.0203C119.833 24.2502 120.335 22.1999 120.335 19.8692C120.335 18.9625 120.257 18.097 120.101 17.2727H113.635C113.883 18.0497 114.007 18.9152 114.007 19.8692C114.007 21.8163 113.49 23.3947 112.458 24.6042C111.455 25.8138 110.083 26.4186 108.342 26.4186C106.631 26.4186 105.26 25.8138 104.227 24.6042C103.224 23.3947 102.722 21.8163 102.722 19.8692C102.722 18.9152 102.843 18.0497 103.084 17.2727H96.5769Z" fill="white"/>
<path d="M107.938 13.3315H98.0676C99.0481 11.7706 100.364 10.5572 102.014 9.69123C103.843 8.71768 105.953 8.23091 108.342 8.23091C110.732 8.23091 112.827 8.71768 114.626 9.69123C116.304 10.5572 117.622 11.7706 118.58 13.3315H108.753C108.619 13.3238 108.482 13.3199 108.342 13.3199C108.206 13.3199 108.071 13.3238 107.938 13.3315Z" fill="white"/>
<path d="M122.884 17.2727V31.2421H129.124V19.6037C129.124 18.7428 129.208 17.9658 129.376 17.2727H122.884Z" fill="white"/>
<path d="M138.657 17.2727C138.762 17.8645 138.815 18.5235 138.815 19.2497V31.2421H145.055V18.8957C145.055 18.331 145.036 17.79 144.998 17.2727H138.657Z" fill="white"/>
<path d="M144.18 13.3315H122.884V8.49642H128.327L128.902 11.3286C129.699 10.355 130.658 9.60273 131.779 9.0717C132.9 8.51117 134.286 8.23091 135.939 8.23091C138.594 8.23091 140.777 9.05695 142.488 10.709C143.2 11.3967 143.764 12.2708 144.18 13.3315Z" fill="white"/>
<path d="M68.6616 13.3315H54.8107V8.49642H60.4749L61.0502 11.9038C61.7288 10.7828 62.5696 9.94199 63.5726 9.38147C64.5756 8.79144 65.918 8.49642 67.5995 8.49642H68.6616V13.3315Z" fill="white"/>
</svg>
