<svg width="102" height="22" viewBox="0 0 102 22" fill="none" xmlns="http://www.w3.org/2000/svg">
<path d="M0.554781 9.30867H5.3132C5.51715 7.94976 5.98197 6.8038 6.70765 5.87079C7.71701 4.57303 9.08686 3.92416 10.8172 3.92416C12.0944 3.92416 13.1552 4.28464 13.9998 5.00562C14.865 5.70599 15.4314 6.67416 15.6992 7.91011H20.3341C20.1693 6.34457 19.6749 4.96442 18.8509 3.76966C18.0269 2.57491 16.9455 1.64794 15.6065 0.988764C14.2676 0.329588 12.7535 0 11.0644 0C8.90147 0 7.01663 0.453183 5.40989 1.35955C3.82375 2.26592 2.5981 3.55337 1.73293 5.22191C1.11185 6.43378 0.71913 7.79603 0.554781 9.30867Z" fill="#171717"/>
<path d="M21.8614 9.30867C22.2173 8.41749 22.8178 7.68351 23.6628 7.10674C24.9606 6.20038 26.6806 5.74719 28.823 5.74719C31.0683 5.74719 32.7986 6.24157 34.014 7.23034C34.7063 7.78417 35.2047 8.47695 35.5092 9.30867C30.898 9.30867 26.4677 9.30867 21.8614 9.30867Z" fill="#171717"/>
<path d="M5.23938 12.0606H0.5C0.615594 13.8307 1.02657 15.4135 1.73293 16.809C2.5981 18.4569 3.82375 19.7341 5.40989 20.6404C7.01663 21.5468 8.90147 22 11.0644 22C12.7535 22 14.2676 21.6704 15.6065 21.0112C16.9455 20.3521 18.0269 19.4251 18.8509 18.2303C19.6749 17.0356 20.1693 15.6554 20.3341 14.0899H15.6992C15.4314 15.3258 14.865 16.3043 13.9998 17.0253C13.1552 17.7257 12.0944 18.0758 10.8172 18.0758C9.08686 18.0758 7.71701 17.427 6.70765 16.1292C5.8738 15.0401 5.38438 13.6839 5.23938 12.0606Z" fill="#171717"/>
<path fill-rule="evenodd" clip-rule="evenodd" d="M27.83 12.0606H35.8679V17.118C35.8679 17.5094 35.9503 17.7772 36.1151 17.9213C36.2799 18.0655 36.5374 18.1376 36.8876 18.1376H37.3819V21.8146H35.1572C33.1591 21.8146 32.1806 20.9494 32.2218 19.2191C31.6451 20.1255 30.9344 20.8155 30.0898 21.2893C29.2452 21.7631 28.2256 22 27.0308 22C25.2593 22 23.8276 21.5983 22.7359 20.7949C21.6647 19.971 21.1291 18.8174 21.1291 17.3343C21.1291 15.6451 21.7471 14.3474 22.9831 13.441C24.1329 12.5927 25.7486 12.1326 27.83 12.0606ZM28.3904 14.9551H31.573V15.264C31.5524 16.3558 31.2125 17.2313 30.5533 17.8904C29.8941 18.529 28.9981 18.8483 27.8651 18.8483C27.1441 18.8483 26.5673 18.6835 26.1348 18.3539C25.7228 18.0243 25.5168 17.5815 25.5168 17.0253C25.5168 16.3661 25.764 15.8614 26.2584 15.5112C26.7733 15.1404 27.484 14.9551 28.3904 14.9551Z" fill="#171717"/>
<path d="M38.7713 12.0606V21.8146H43.128V14.0281C43.128 13.2805 43.2268 12.6247 43.4245 12.0606H38.7713Z" fill="#171717"/>
<path d="M50.0924 12.0606V21.8146H53.893L54.3256 19.6517C54.8611 20.3727 55.5409 20.9494 56.3649 21.382C57.1889 21.794 58.157 22 59.2694 22C60.6701 22 61.9267 21.6601 63.039 20.9803C64.1514 20.3006 65.0166 19.3427 65.6345 18.1067C66.2731 16.8708 66.5924 15.4494 66.5924 13.8427C66.5924 13.2175 66.5465 12.6235 66.4546 12.0606H61.9142C62.0873 12.6031 62.1739 13.2074 62.1739 13.8736C62.1739 15.2331 61.8134 16.3352 61.0924 17.1798C60.3714 18.0243 59.4239 18.4466 58.2497 18.4466C57.0756 18.4466 56.1383 18.0243 55.4379 17.1798C54.7375 16.3352 54.3874 15.2228 54.3874 13.8427C54.3874 13.1862 54.469 12.5922 54.6323 12.0606H50.0924Z" fill="#171717"/>
<path d="M57.9724 9.30867H50.0924V0.185393H54.4492V7.94101C55.6645 6.47846 57.261 5.74719 59.2385 5.74719C60.6598 5.74719 61.9267 6.07678 63.039 6.73595C64.0785 7.3327 64.9021 8.19027 65.5099 9.30867H58.5272C58.4362 9.30327 58.3437 9.30056 58.2497 9.30056C58.1558 9.30056 58.0633 9.30327 57.9724 9.30867Z" fill="#171717"/>
<path d="M67.9343 12.0606C67.8288 12.6361 67.776 13.2405 67.776 13.8736C67.776 15.4803 68.1159 16.9017 68.7956 18.1376C69.496 19.3736 70.4745 20.3315 71.731 21.0112C73.0082 21.6704 74.481 22 76.1496 22C77.8181 22 79.2807 21.6704 80.5372 21.0112C81.8144 20.3315 82.7928 19.3839 83.4726 18.1685C84.173 16.9326 84.5232 15.5009 84.5232 13.8736C84.5232 13.2405 84.4688 12.6361 84.3601 12.0606H79.845C80.0181 12.6031 80.1046 13.2074 80.1046 13.8736C80.1046 15.2331 79.7441 16.3352 79.0232 17.1798C78.3228 18.0243 77.3649 18.4466 76.1496 18.4466C74.9548 18.4466 73.997 18.0243 73.276 17.1798C72.5756 16.3352 72.2254 15.2331 72.2254 13.8736C72.2254 13.2074 72.3095 12.6031 72.4776 12.0606H67.9343Z" fill="#171717"/>
<path d="M75.8673 9.30867H68.9752C69.6598 8.21876 70.5785 7.37149 71.731 6.76685C73.0082 6.08708 74.481 5.74719 76.1496 5.74719C77.8181 5.74719 79.2807 6.08708 80.5372 6.76685C81.7087 7.37149 82.6289 8.21876 83.2977 9.30867H76.4364C76.3424 9.30327 76.2468 9.30056 76.1496 9.30056C76.054 9.30056 75.9599 9.30327 75.8673 9.30867Z" fill="#171717"/>
<path d="M86.3032 12.0606V21.8146H90.66V13.6882C90.66 13.087 90.7186 12.5445 90.8359 12.0606H86.3032Z" fill="#171717"/>
<path d="M97.3168 12.0606C97.3901 12.4738 97.4268 12.9339 97.4268 13.441V21.8146H101.784V13.1938C101.784 12.7995 101.77 12.4218 101.744 12.0606H97.3168Z" fill="#171717"/>
<path d="M101.173 9.30867H86.3032V5.93258H90.1038L90.5055 7.91011C91.0617 7.23034 91.7311 6.70506 92.5139 6.33427C93.2967 5.94288 94.2649 5.74719 95.4184 5.74719C97.2723 5.74719 98.7967 6.32397 99.9914 7.47753C100.489 7.95766 100.883 8.56804 101.173 9.30867Z" fill="#171717"/>
<path d="M48.4426 9.30867H38.7713V5.93258H42.7263L43.128 8.3118C43.6018 7.52903 44.1889 6.94195 44.8892 6.55056C45.5896 6.13858 46.5269 5.93258 47.701 5.93258H48.4426V9.30867Z" fill="#171717"/>
</svg>
