<svg width="153" height="143" viewBox="0 0 153 143" fill="none" xmlns="http://www.w3.org/2000/svg">
<path fill-rule="evenodd" clip-rule="evenodd" d="M0 66.1641H153V143H0V66.1641Z" fill="white"/>
<path opacity="0.1" fill-rule="evenodd" clip-rule="evenodd" d="M153 66.1641L0 66.1641L75.0832 -0.000114441L153 66.1641Z" fill="#171717"/>
<path fill-rule="evenodd" clip-rule="evenodd" d="M20.2188 137.131C15.8005 137.131 12.2188 133.549 12.2188 129.131L12.2187 35.213C12.2187 30.7947 15.8005 27.213 20.2187 27.213L133.844 27.213C138.262 27.213 141.844 30.7947 141.844 35.213V129.131C141.844 133.549 138.262 137.131 133.844 137.131H20.2188Z" fill="#171717"/>
<path d="M28.0525 74.8856H32.6156C32.8112 73.5884 33.2569 72.4945 33.9528 71.6039C34.9207 70.3652 36.2343 69.7458 37.8936 69.7458C39.1183 69.7458 40.1356 70.0899 40.9455 70.7781C41.7751 71.4466 42.3184 72.3708 42.5752 73.5506H47.0197C46.8617 72.0562 46.3876 70.7388 45.5974 69.5983C44.8073 68.4579 43.7702 67.573 42.4863 66.9438C41.2023 66.3146 39.7504 66 38.1306 66C36.0565 66 34.2491 66.4326 32.7083 67.2978C31.1873 68.1629 30.012 69.3919 29.1823 70.9846C28.5867 72.1413 28.2101 73.4417 28.0525 74.8856Z" fill="white"/>
<path d="M48.4843 74.8856C48.8256 74.0349 49.4015 73.3343 50.2118 72.7837C51.4563 71.9185 53.1057 71.486 55.1601 71.486C57.3132 71.486 58.9725 71.9579 60.1379 72.9017C60.8018 73.4303 61.2797 74.0916 61.5718 74.8856C57.1499 74.8856 52.9015 74.8856 48.4843 74.8856Z" fill="white"/>
<path d="M32.5448 77.5124H28C28.1108 79.202 28.5049 80.7129 29.1823 82.0449C30.012 83.618 31.1873 84.8371 32.7083 85.7022C34.2491 86.5674 36.0565 87 38.1306 87C39.7504 87 41.2023 86.6854 42.4863 86.0562C43.7702 85.427 44.8073 84.5421 45.5974 83.4017C46.3876 82.2612 46.8617 80.9438 47.0197 79.4494H42.5752C42.3184 80.6292 41.7751 81.5632 40.9455 82.2514C40.1356 82.9199 39.1183 83.2542 37.8936 83.2542C36.2343 83.2542 34.9207 82.6348 33.9528 81.3961C33.1532 80.3565 32.6838 79.0619 32.5448 77.5124Z" fill="white"/>
<path fill-rule="evenodd" clip-rule="evenodd" d="M54.2078 77.5124H61.9157V82.3399C61.9157 82.7135 61.9948 82.9691 62.1528 83.1067C62.3108 83.2444 62.5577 83.3132 62.8935 83.3132H63.3676V86.823H61.2342C59.3182 86.823 58.3799 85.9972 58.4194 84.3455C57.8663 85.2107 57.1848 85.8694 56.3749 86.3216C55.565 86.7739 54.5872 87 53.4415 87C51.7427 87 50.3698 86.6166 49.3229 85.8497C48.2957 85.0632 47.7821 83.9621 47.7821 82.5464C47.7821 80.934 48.3747 79.6952 49.5599 78.8301C50.6626 78.0203 52.2119 77.5811 54.2078 77.5124ZM54.7452 80.2753H57.7971V80.5702C57.7774 81.6124 57.4515 82.448 56.8193 83.0772C56.1872 83.6868 55.328 83.9916 54.2415 83.9916C53.5501 83.9916 52.997 83.8343 52.5822 83.5197C52.1872 83.2051 51.9896 82.7823 51.9896 82.2514C51.9896 81.6222 52.2267 81.1405 52.7007 80.8062C53.1946 80.4522 53.8761 80.2753 54.7452 80.2753Z" fill="white"/>
<path d="M64.6999 77.5124V86.823H68.8778V79.3904C68.8778 78.6768 68.9725 78.0508 69.162 77.5124H64.6999Z" fill="white"/>
<path d="M75.5562 77.5124V86.823H79.2007L79.6155 84.7584C80.1291 85.4466 80.781 85.9972 81.5711 86.4101C82.3613 86.8034 83.2897 87 84.3564 87C85.6996 87 86.9046 86.6756 87.9713 86.0267C89.038 85.3778 89.8676 84.4635 90.4602 83.2837C91.0726 82.1039 91.3787 80.7472 91.3787 79.2135C91.3787 78.6167 91.3347 78.0497 91.2465 77.5124H86.8926C87.0586 78.0302 87.1416 78.6071 87.1416 79.243C87.1416 80.5407 86.7959 81.5927 86.1046 82.3989C85.4132 83.2051 84.5045 83.6081 83.3786 83.6081C82.2526 83.6081 81.3538 83.2051 80.6822 82.3989C80.0106 81.5927 79.6748 80.5309 79.6748 79.2135C79.6748 78.5868 79.7531 78.0198 79.9097 77.5124H75.5562Z" fill="white"/>
<path d="M83.1126 74.8856H75.5562V66.177H79.7341V73.5801C80.8995 72.184 82.4304 71.486 84.3268 71.486C85.6897 71.486 86.9046 71.8006 87.9713 72.4298C88.9681 72.9994 89.7579 73.818 90.3407 74.8856H83.6447C83.5574 74.8804 83.4687 74.8778 83.3786 74.8778C83.2885 74.8778 83.1998 74.8804 83.1126 74.8856Z" fill="white"/>
<path d="M92.6655 77.5124C92.5643 78.0618 92.5137 78.6386 92.5137 79.243C92.5137 80.7767 92.8396 82.1334 93.4915 83.3132C94.1631 84.493 95.1014 85.4073 96.3064 86.0562C97.5311 86.6854 98.9435 87 100.544 87C102.144 87 103.546 86.6854 104.751 86.0562C105.976 85.4073 106.914 84.5028 107.566 83.3427C108.237 82.1629 108.573 80.7963 108.573 79.243C108.573 78.6386 108.521 78.0618 108.417 77.5124H104.087C104.253 78.0302 104.336 78.6071 104.336 79.243C104.336 80.5407 103.99 81.5927 103.299 82.3989C102.627 83.2051 101.709 83.6081 100.544 83.6081C99.3978 83.6081 98.4793 83.2051 97.7879 82.3989C97.1163 81.5927 96.7805 80.5407 96.7805 79.243C96.7805 78.6071 96.8611 78.0302 97.0223 77.5124H92.6655Z" fill="white"/>
<path d="M100.273 74.8856H93.6637C94.3202 73.8452 95.2011 73.0364 96.3064 72.4593C97.5311 71.8104 98.9435 71.486 100.544 71.486C102.144 71.486 103.546 71.8104 104.751 72.4593C105.874 73.0364 106.757 73.8452 107.398 74.8856H100.819C100.728 74.8804 100.637 74.8778 100.544 74.8778C100.452 74.8778 100.362 74.8804 100.273 74.8856Z" fill="white"/>
<path d="M110.28 77.5124V86.823H114.458V79.066C114.458 78.4922 114.514 77.9743 114.627 77.5124H110.28Z" fill="white"/>
<path d="M120.842 77.5124C120.912 77.9068 120.947 78.346 120.947 78.8301V86.823H125.125V78.5941C125.125 78.2177 125.112 77.8571 125.087 77.5124H120.842Z" fill="white"/>
<path d="M124.539 74.8856H110.28V71.6629H113.925L114.31 73.5506C114.843 72.9017 115.485 72.4003 116.236 72.0463C116.987 71.6728 117.915 71.486 119.021 71.486C120.799 71.486 122.261 72.0365 123.406 73.1376C123.883 73.5959 124.261 74.1786 124.539 74.8856Z" fill="white"/>
<path d="M73.9742 74.8856H64.6999V71.6629H68.4926L68.8778 73.934C69.3321 73.1868 69.8951 72.6264 70.5667 72.2528C71.2383 71.8596 72.1371 71.6629 73.263 71.6629H73.9742V74.8856Z" fill="white"/>
<path fill-rule="evenodd" clip-rule="evenodd" d="M153 66.1641L0 143H153V66.1641Z" fill="#CFCFCF"/>
<path fill-rule="evenodd" clip-rule="evenodd" d="M0 66.1641L153 143H0V66.1641Z" fill="#DEDEDE"/>
<path fill-rule="evenodd" clip-rule="evenodd" d="M138.75 41.6119C145.792 41.6119 151.5 35.8785 151.5 28.806C151.5 21.7334 145.792 16 138.75 16C131.708 16 126 21.7334 126 28.806C126 35.8785 131.708 41.6119 138.75 41.6119Z" fill="#EB001B"/>
<path d="M140.241 23V35.27H137.717V27.4347C137.565 27.4932 137.343 27.5224 137.051 27.5224H135V25.4365H136.841C137.144 25.4365 137.372 25.3196 137.524 25.0859C137.688 24.8405 137.77 24.5425 137.77 24.1919V23H140.241Z" fill="white"/>
</svg>
