<svg width="32" height="24" viewBox="0 0 32 24" fill="none" xmlns="http://www.w3.org/2000/svg"><path d="M5.33314 21.197C5.33345 21.2345 5.33128 21.2719 5.32676 21.3068C5.32223 21.3417 5.31545 21.3735 5.30681 21.4004C5.29816 21.4272 5.28783 21.4485 5.27643 21.4631C5.26502 21.4777 5.25277 21.4852 5.24039 21.4852H2.77089C2.75745 21.4892 2.74388 21.4845 2.73109 21.4713C2.7183 21.4582 2.70658 21.437 2.69671 21.4091C2.68683 21.3811 2.67904 21.3472 2.67384 21.3094C2.66864 21.2716 2.66615 21.2309 2.66654 21.19V19.0819C2.66715 19.0067 2.67743 18.9352 2.6952 18.8827C2.71296 18.8301 2.7368 18.8008 2.76161 18.8008H5.24039C5.26499 18.8008 5.28858 18.8304 5.30597 18.8831C5.32337 18.9358 5.33314 19.0073 5.33314 19.0819V21.197Z" fill="#171717"/><path d="M29.3331 21.197C29.3334 21.2345 29.3313 21.2719 29.3268 21.3068C29.3222 21.3417 29.3155 21.3735 29.3068 21.4004C29.2982 21.4272 29.2878 21.4485 29.2764 21.4631C29.265 21.4777 29.2528 21.4852 29.2404 21.4852H26.7709C26.7575 21.4892 26.7439 21.4845 26.7311 21.4713C26.7183 21.4582 26.7066 21.437 26.6967 21.4091C26.6868 21.3811 26.679 21.3472 26.6738 21.3094C26.6686 21.2716 26.6662 21.2309 26.6665 21.19V19.0819C26.6671 19.0067 26.6774 18.9352 26.6952 18.8827C26.713 18.8301 26.7368 18.8008 26.7616 18.8008H29.2404C29.265 18.8008 29.2886 18.8304 29.306 18.8831C29.3234 18.9358 29.3331 19.0073 29.3331 19.0819V21.197Z" fill="#171717"/><path d="M5.33314 5.08181C5.33345 5.11931 5.33128 5.15662 5.32676 5.19154C5.32223 5.22646 5.31545 5.25828 5.30681 5.28513C5.29816 5.31198 5.28783 5.33331 5.27643 5.34788C5.26502 5.36244 5.25277 5.36994 5.24039 5.36992H2.77089C2.75745 5.37393 2.74388 5.36922 2.73109 5.3561C2.7183 5.34298 2.70658 5.32175 2.69671 5.29382C2.68683 5.2659 2.67904 5.23192 2.67384 5.19415C2.66864 5.15639 2.66615 5.11569 2.66654 5.07478V2.96663C2.66715 2.89144 2.67743 2.81995 2.6952 2.76743C2.71296 2.71491 2.7368 2.68552 2.76161 2.68555H5.24039C5.26499 2.68555 5.28858 2.71516 5.30597 2.76787C5.32337 2.82059 5.33314 2.89208 5.33314 2.96663V5.08181Z" fill="#171717"/><path d="M29.3331 5.08181C29.3334 5.11931 29.3313 5.15662 29.3268 5.19154C29.3222 5.22646 29.3155 5.25828 29.3068 5.28513C29.2982 5.31198 29.2878 5.33331 29.2764 5.34788C29.265 5.36244 29.2528 5.36994 29.2404 5.36992H26.7709C26.7575 5.37393 26.7439 5.36922 26.7311 5.3561C26.7183 5.34298 26.7066 5.32175 26.6967 5.29382C26.6868 5.2659 26.679 5.23192 26.6738 5.19415C26.6686 5.15639 26.6662 5.11569 26.6665 5.07478V2.96663C26.6671 2.89144 26.6774 2.81995 26.6952 2.76743C26.713 2.71491 26.7368 2.68552 26.7616 2.68555H29.2404C29.265 2.68555 29.2886 2.71516 29.306 2.76787C29.3234 2.82059 29.3331 2.89208 29.3331 2.96663V5.08181Z" fill="#171717"/><path fill-rule="evenodd" clip-rule="evenodd" d="M1.34915 1.10477e-05H30.6509C30.8282 -0.000710747 31.004 0.0339429 31.168 0.101973C31.332 0.170004 31.481 0.270064 31.6064 0.396384C31.7319 0.522705 31.8312 0.672784 31.8987 0.837967C31.9663 1.00315 32.0007 1.18017 32 1.35881V22.6412C32.0007 22.8198 31.9663 22.9968 31.8987 23.162C31.8312 23.3272 31.7319 23.4773 31.6064 23.6036C31.481 23.7299 31.332 23.83 31.168 23.898C31.004 23.9661 30.8282 24.0007 30.6509 24H1.34915C1.17177 24.0007 0.996016 23.9661 0.832008 23.898C0.668 23.83 0.518987 23.7299 0.393566 23.6036C0.268144 23.4773 0.168795 23.3272 0.101248 23.162C0.0337015 22.9968 -0.000705693 22.8198 1.09691e-05 22.6412V1.35881C-0.000705693 1.18017 0.0337015 1.00315 0.101248 0.837967C0.168795 0.672784 0.268144 0.522705 0.393566 0.396384C0.518987 0.270064 0.668 0.170004 0.832008 0.101973C0.996016 0.0339429 1.17177 -0.000710747 1.34915 1.10477e-05ZM1.62548 22.3411H30.3745V1.63712H1.62548V22.3411Z" fill="#171717"/></svg>
