<svg width="40" height="40" viewBox="0 0 40 40" fill="none" xmlns="http://www.w3.org/2000/svg">
<path d="M7.50016 20.0003C9.80135 20.0003 11.6668 18.1348 11.6668 15.8337C11.6668 13.5325 9.80135 11.667 7.50016 11.667C5.19898 11.667 3.3335 13.5325 3.3335 15.8337C3.3335 18.1348 5.19898 20.0003 7.50016 20.0003Z" fill="white"/>
<path d="M15.0002 13.3333C17.3013 13.3333 19.1668 11.4679 19.1668 9.16667C19.1668 6.86548 17.3013 5 15.0002 5C12.699 5 10.8335 6.86548 10.8335 9.16667C10.8335 11.4679 12.699 13.3333 15.0002 13.3333Z" fill="white"/>
<path d="M25.0002 13.3333C27.3014 13.3333 29.1668 11.4679 29.1668 9.16667C29.1668 6.86548 27.3014 5 25.0002 5C22.699 5 20.8335 6.86548 20.8335 9.16667C20.8335 11.4679 22.699 13.3333 25.0002 13.3333Z" fill="white"/>
<path d="M32.5002 20.0003C34.8013 20.0003 36.6668 18.1348 36.6668 15.8337C36.6668 13.5325 34.8013 11.667 32.5002 11.667C30.199 11.667 28.3335 13.5325 28.3335 15.8337C28.3335 18.1348 30.199 20.0003 32.5002 20.0003Z" fill="white"/>
<path d="M28.8999 24.7667C27.4499 23.0667 26.2332 21.6167 24.7666 19.9167C23.9999 19.0167 23.0166 18.1167 21.8499 17.7167C21.6666 17.65 21.4832 17.6 21.2999 17.5667C20.8832 17.5 20.4332 17.5 19.9999 17.5C19.5666 17.5 19.1166 17.5 18.6832 17.5833C18.4999 17.6167 18.3166 17.6667 18.1332 17.7333C16.9666 18.1333 15.9999 19.0333 15.2166 19.9333C13.7666 21.6333 12.5499 23.0833 11.0832 24.7833C8.89991 26.9667 6.21658 29.3833 6.71658 32.7667C7.19991 34.4667 8.41658 36.15 10.5999 36.6333C11.8166 36.8833 15.6999 35.9 19.8332 35.9H20.1332C24.2666 35.9 28.1499 36.8667 29.3666 36.6333C31.5499 36.15 32.7666 34.45 33.2499 32.7667C33.7666 29.3667 31.0832 26.95 28.8999 24.7667V24.7667Z" fill="white"/>
</svg>
