<svg width="40" height="40" viewBox="0 0 40 40" fill="none" xmlns="http://www.w3.org/2000/svg">
<circle cx="20" cy="20" r="18" stroke="white" stroke-width="2"/>
<path fill-rule="evenodd" clip-rule="evenodd" d="M18.8575 9.71429C18.8575 9.25963 18.6769 8.82359 18.3554 8.5021C18.0339 8.18061 17.5978 8 17.1432 8C16.6885 8 16.2524 8.18061 15.9309 8.5021C15.6094 8.82359 15.4288 9.25963 15.4288 9.71429V11.4286H13.7144C13.2597 11.4286 12.8236 11.6092 12.5021 11.9307C12.1806 12.2522 12 12.6882 12 13.1429C12 13.5975 12.1806 14.0335 12.5021 14.355C12.8236 14.6765 13.2597 14.8571 13.7144 14.8571V25.1429C13.2597 25.1429 12.8236 25.3235 12.5021 25.645C12.1806 25.9665 12 26.4025 12 26.8571C12 27.3118 12.1806 27.7478 12.5021 28.0693C12.8236 28.3908 13.2597 28.5714 13.7144 28.5714H15.4288V30.2857C15.4288 30.7404 15.6094 31.1764 15.9309 31.4979C16.2524 31.8194 16.6885 32 17.1432 32C17.5978 32 18.0339 31.8194 18.3554 31.4979C18.6769 31.1764 18.8575 30.7404 18.8575 30.2857V28.5714H20.5719V30.2857C20.5719 30.7404 20.7525 31.1764 21.074 31.4979C21.3956 31.8194 21.8316 32 22.2863 32C22.741 32 23.177 31.8194 23.4986 31.4979C23.8201 31.1764 24.0007 30.7404 24.0007 30.2857V28.5714H24.8579C25.908 28.5712 26.933 28.2496 27.7949 27.6497C28.6569 27.0498 29.3145 26.2005 29.6794 25.2158C30.0444 24.2312 30.0992 23.1584 29.8364 22.1417C29.5736 21.125 29.0059 20.2131 28.2095 19.5286C28.751 18.7581 29.0705 17.8538 29.1333 16.9142C29.1961 15.9747 28.9997 15.0359 28.5655 14.2003C28.1313 13.3647 27.476 12.6643 26.6711 12.1755C25.8661 11.6868 24.9424 11.4284 24.0007 11.4286V9.71429C24.0007 9.25963 23.8201 8.82359 23.4986 8.5021C23.177 8.18061 22.741 8 22.2863 8C21.8316 8 21.3956 8.18061 21.074 8.5021C20.7525 8.82359 20.5719 9.25963 20.5719 9.71429V11.4286H18.8575V9.71429ZM22.2863 25.1429H17.1432V21.7143H24.8579C25.3126 21.7143 25.7486 21.8949 26.0701 22.2164C26.3916 22.5379 26.5723 22.9739 26.5723 23.4286C26.5723 23.8832 26.3916 24.3193 26.0701 24.6408C25.7486 24.9622 25.3126 25.1429 24.8579 25.1429H22.2863ZM22.2863 14.8571H17.1432V18.2857H24.0007C24.4554 18.2857 24.8914 18.1051 25.2129 17.7836C25.5344 17.4621 25.7151 17.0261 25.7151 16.5714C25.7151 16.1168 25.5344 15.6807 25.2129 15.3592C24.8914 15.0378 24.4554 14.8571 24.0007 14.8571H22.2863Z" fill="white"/>
</svg>
