<svg width="40" height="40" viewBox="0 0 40 40" fill="none" xmlns="http://www.w3.org/2000/svg">
<path d="M20.003 5H14.003C13.6052 5 13.2236 5.15804 12.9423 5.43934C12.661 5.72064 12.503 6.10218 12.503 6.5V12.218C11.1364 13.0066 10.0013 14.1408 9.21142 15.5067C8.42159 16.8726 8.00484 18.4222 8.003 20V21.482L8 21.5L8.003 21.608V33.5C8.003 33.8978 8.16104 34.2794 8.44234 34.5607C8.72364 34.842 9.10517 35 9.503 35H24.503C24.9008 35 25.2824 34.842 25.5637 34.5607C25.845 34.2794 26.003 33.8978 26.003 33.5V20C26.001 18.4222 25.5842 16.8727 24.7944 15.5068C24.0046 14.141 22.8695 13.0068 21.503 12.218V6.5C21.503 6.10218 21.345 5.72064 21.0637 5.43934C20.7824 5.15804 20.4008 5 20.003 5ZM14.503 11V7H19.503V11H14.503ZM24.0045 33H10.0045V22H24.0045V33ZM10.003 20C10.003 16.691 13.694 13 17.003 13C20.312 13 24.003 16.691 24.003 20H10.003Z" fill="white"/>
<ellipse cx="29" cy="12" rx="0.999999" ry="1" fill="white"/>
<ellipse cx="32" cy="12" rx="0.999999" ry="1" fill="white"/>
<ellipse cx="32" cy="15" rx="0.999999" ry="1" fill="white"/>
<circle cx="29" cy="9" r="1" fill="white"/>
<circle cx="32" cy="9" r="1" fill="white"/>
<circle cx="26" cy="9" r="1" fill="white"/>
</svg>
