<svg width="40" height="40" viewBox="0 0 40 40" fill="none" xmlns="http://www.w3.org/2000/svg">
<path d="M18.8485 3C19.1545 3 19.448 3.12157 19.6644 3.33795C19.8807 3.55434 20.0023 3.84783 20.0023 4.15385V5.30769H22.3077C23.2257 5.30769 24.1062 5.67239 24.7554 6.32155C25.4045 6.97072 25.7692 7.85117 25.7692 8.76923V14.5385H29.2308C30.1488 14.5385 31.0293 14.9032 31.6784 15.5523C32.3276 16.2015 32.6923 17.0819 32.6923 18V29.5385C32.6923 30.4565 32.3276 31.337 31.6784 31.9861C31.0293 32.6353 30.1488 33 29.2308 33H8.46154C7.54348 33 6.66303 32.6353 6.01386 31.9861C5.3647 31.337 5 30.4565 5 29.5385V18.6762C5.00024 18.099 5.14478 17.5311 5.42045 17.0241C5.69613 16.5171 6.09421 16.087 6.57846 15.7731L11.1938 12.78C11.4315 12.6277 11.6738 12.5054 11.9231 12.4177V8.76923C11.9231 7.85117 12.2878 6.97072 12.9369 6.32155C13.5861 5.67239 14.4666 5.30769 15.3846 5.30769H17.6946V4.15385C17.6946 3.84783 17.8162 3.55434 18.0326 3.33795C18.249 3.12157 18.5424 3 18.8485 3ZM14.2308 12.42C15.5277 12.8815 16.5385 14.1046 16.5385 15.6854V30.6923H21.1538V18C21.1535 17.2839 21.3752 16.5852 21.7885 16.0004C22.2018 15.4156 22.7864 14.9733 23.4615 14.7346V8.76923C23.4615 8.46321 23.34 8.16973 23.1236 7.95334C22.9072 7.73695 22.6137 7.61538 22.3077 7.61538H15.3846C15.0786 7.61538 14.7851 7.73695 14.5687 7.95334C14.3523 8.16973 14.2308 8.46321 14.2308 8.76923V12.42ZM24.6154 16.8462C24.3094 16.8462 24.0159 16.9677 23.7995 17.1841C23.5831 17.4005 23.4615 17.694 23.4615 18V30.6923H29.2308C29.5368 30.6923 29.8303 30.5707 30.0467 30.3544C30.2631 30.138 30.3846 29.8445 30.3846 29.5385V18C30.3846 17.694 30.2631 17.4005 30.0467 17.1841C29.8303 16.9677 29.5368 16.8462 29.2308 16.8462H24.6154ZM12.4492 14.7162L7.83385 17.7092C7.67221 17.814 7.53938 17.9576 7.44748 18.1269C7.35557 18.2962 7.30752 18.4858 7.30769 18.6785V29.5385C7.30769 29.8445 7.42926 30.138 7.64565 30.3544C7.86203 30.5707 8.15552 30.6923 8.46154 30.6923H14.2308V15.6854C14.231 15.4777 14.1751 15.2738 14.0691 15.0952C13.963 14.9167 13.8108 14.77 13.6283 14.6708C13.4459 14.5715 13.2401 14.5233 13.0325 14.5313C12.825 14.5393 12.6235 14.6032 12.4492 14.7162Z" fill="white"/>
</svg>
