<svg width="40" height="40" viewBox="0 0 40 40" fill="none" xmlns="http://www.w3.org/2000/svg">
<path d="M28.2111 20.8948L28.6584 21.7892L28.2111 20.8948ZM15.07 12.5353L15.5172 11.6409L15.07 12.5353ZM15.5172 11.6409L28.6584 18.2115L27.7639 20.0003L14.6228 13.4297L15.5172 11.6409ZM28.6584 21.7892L15.5172 28.3598L14.6228 26.5709L27.7639 20.0003L28.6584 21.7892ZM14.3333 13.6086V26.392H12.3333V13.6086H14.3333ZM15.5172 28.3598C14.0544 29.0912 12.3333 28.0275 12.3333 26.392H14.3333C14.3333 26.5407 14.4898 26.6374 14.6228 26.5709L15.5172 28.3598ZM28.6584 18.2115C30.1325 18.9485 30.1325 21.0521 28.6584 21.7892L27.7639 20.0003L27.7639 20.0003L28.6584 18.2115ZM14.6228 13.4297C14.4898 13.3633 14.3333 13.46 14.3333 13.6086H12.3333C12.3333 11.9732 14.0544 10.9095 15.5172 11.6409L14.6228 13.4297Z" fill="white"/>
<circle cx="20" cy="20" r="15" stroke="white" stroke-width="2"/>
</svg>
