<svg width="40" height="40" viewBox="0 0 40 40" fill="none" xmlns="http://www.w3.org/2000/svg">
<path d="M17.2822 10.9025C18.5933 7.63417 19.2488 6 20.376 6C21.5032 6 22.1587 7.63417 23.4697 10.9025L23.5307 11.0547C24.2714 12.9011 24.6417 13.8244 25.3965 14.3855C26.1512 14.9467 27.142 15.0354 29.1235 15.2128L29.4817 15.2449C32.7248 15.5354 34.3463 15.6806 34.6932 16.7122C35.0402 17.7439 33.836 18.8394 31.4276 21.0306L30.6238 21.7619C29.4046 22.8711 28.795 23.4257 28.5109 24.1525C28.4579 24.2881 28.4138 24.4271 28.379 24.5684C28.1922 25.3262 28.3708 26.1307 28.7278 27.7398L28.8389 28.2407C29.495 31.1979 29.8231 32.6766 29.2503 33.3143C29.0362 33.5526 28.7581 33.7242 28.449 33.8086C27.622 34.0342 26.4479 33.0775 24.0996 31.164C22.5577 29.9075 21.7867 29.2793 20.9015 29.1379C20.5534 29.0824 20.1986 29.0824 19.8504 29.1379C18.9652 29.2793 18.1942 29.9075 16.6523 31.164C14.304 33.0775 13.1299 34.0342 12.3029 33.8086C11.9939 33.7242 11.7157 33.5526 11.5017 33.3143C10.9289 32.6766 11.2569 31.1979 11.913 28.2407L12.0242 27.7398C12.3812 26.1307 12.5597 25.3262 12.3729 24.5684C12.3381 24.4271 12.294 24.2881 12.241 24.1525C11.9569 23.4257 11.3473 22.8711 10.1281 21.7619L9.32435 21.0306C6.91594 18.8394 5.71174 17.7439 6.0587 16.7122C6.40567 15.6806 8.02718 15.5354 11.2702 15.2449L11.6284 15.2128C13.61 15.0354 14.6007 14.9467 15.3555 14.3855C16.1102 13.8244 16.4805 12.9011 17.2212 11.0547L17.2822 10.9025Z" stroke="white" stroke-width="2"/>
</svg>
