<svg width="40" height="40" viewBox="0 0 40 40" fill="none" xmlns="http://www.w3.org/2000/svg">
<path d="M30.4499 14.899C30.4499 9.1577 25.7795 4.4873 20.0382 4.4873C14.2969 4.4873 9.62646 9.1577 9.62646 14.899C9.62646 15.5385 10.1439 16.0559 10.7833 16.0559H29.2931C29.9325 16.0559 30.4499 15.5385 30.4499 14.899Z" fill="white"/>
<path d="M5.03633 37.1339C4.99553 37.7863 5.54172 38.3332 6.19542 38.3332H33.8835C34.5372 38.3332 35.0834 37.7861 35.0426 37.1339C34.6564 30.9555 31.2361 30.0092 28.4177 29.1673C27.7514 28.9685 27.0532 28.7645 26.3738 28.5C24.7338 30.2728 22.4765 31.3149 20.0395 31.3149C17.6041 31.3149 15.3483 30.2738 13.7085 28.5035C13.0284 28.765 12.3287 28.9689 11.6602 29.1684C8.8427 30.0092 5.42256 30.9554 5.03633 37.1339V37.1339Z" fill="white"/>
<path d="M28.1374 19.527V18.3701H11.9414V19.527C11.9414 23.9918 15.5746 27.7021 20.0394 27.7021C24.5042 27.7021 28.1374 23.9918 28.1374 19.527Z" fill="white"/>
<path d="M30.4503 1.66699C28.9143 1.66699 27.5609 2.42689 26.7188 3.5819C29.2864 5.17443 31.2548 7.64379 32.179 10.5797C33.8755 9.89295 35.0777 8.23463 35.0777 6.29443C35.0777 3.74232 33.0024 1.66699 30.4503 1.66699V1.66699Z" fill="white"/>
<path d="M7.89878 10.5797C8.82288 7.64371 10.7913 5.17443 13.359 3.5819C12.5169 2.42689 11.1634 1.66699 9.62743 1.66699C7.07533 1.66699 5 3.74232 5 6.29443C5 8.23463 6.20221 9.89295 7.89878 10.5797Z" fill="white"/>
</svg>
