<svg width="40" height="40" viewBox="0 0 40 40" fill="none" xmlns="http://www.w3.org/2000/svg">
<g clip-path="url(#clip0)">
<path d="M25.8877 35.3234L35.321 25.8901C35.6293 25.581 35.8514 25.1965 35.965 24.7749C36.0786 24.3533 36.0797 23.9093 35.9684 23.4871L32.4583 10.2034C32.2893 9.5633 31.9536 8.97945 31.4854 8.51132C31.0173 8.0432 30.4335 7.70752 29.7934 7.53848L16.5108 4.02947C16.0886 3.91813 15.6446 3.91932 15.223 4.03291C14.8014 4.1465 14.4169 4.36854 14.1078 4.67691L4.67451 14.1102C4.36576 14.4193 4.1434 14.8039 4.02961 15.2257C3.91582 15.6476 3.91456 16.0919 4.02596 16.5143L7.53608 29.798C7.70556 30.4379 8.04139 31.0215 8.50945 31.4895C8.97751 31.9576 9.56112 32.2934 10.201 32.4629L23.4847 35.973C23.9071 36.0841 24.3512 36.0825 24.7728 35.9686C25.1944 35.8546 25.5788 35.6321 25.8877 35.3234Z" stroke="white" stroke-width="2.5" stroke-linecap="round" stroke-linejoin="round"/>
<path d="M15.3022 4.03418L19.5559 20.4413L35.963 24.695" stroke="white" stroke-width="2.5" stroke-linecap="round" stroke-linejoin="round"/>
<path d="M8.50761 31.4909L19.5562 20.4424" stroke="white" stroke-width="2.5" stroke-linecap="round" stroke-linejoin="round"/>
<path d="M24.8584 15.1395C25.5906 15.8717 26.5799 16.0696 27.0681 15.5814C27.5562 15.0933 27.3584 14.104 26.6261 13.3717C25.8939 12.6395 24.9046 12.4416 24.4164 12.9298C23.9283 13.4179 24.1261 14.4073 24.8584 15.1395Z" fill="white"/>
<path d="M13.8099 20.8842C14.298 21.3723 15.2873 21.1745 16.0196 20.4422C16.7518 19.71 16.9497 18.7207 16.4615 18.2325C15.9734 17.7444 14.984 17.9422 14.2518 18.6745C13.5196 19.4067 13.3217 20.396 13.8099 20.8842Z" fill="white"/>
<path d="M6.73858 17.349C7.22674 17.8372 8.21606 17.6393 8.94829 16.9071C9.68052 16.1748 9.87839 15.1855 9.39023 14.6974C8.90208 14.2092 7.91276 14.4071 7.18052 15.1393C6.44829 15.8715 6.25043 16.8609 6.73858 17.349Z" fill="white"/>
<path d="M19.1136 26.1879C19.6017 26.676 20.5911 26.4782 21.3233 25.7459C22.0555 25.0137 22.2534 24.0244 21.7652 23.5362C21.2771 23.0481 20.2878 23.2459 19.5555 23.9782C18.8233 24.7104 18.6254 25.6997 19.1136 26.1879Z" fill="white"/>
<path d="M27.5101 28.3978C27.9982 28.886 28.9875 28.6881 29.7198 27.9559C30.452 27.2237 30.6499 26.2343 30.1617 25.7462C29.6736 25.258 28.6842 25.4559 27.952 26.1881C27.2198 26.9204 27.0219 27.9097 27.5101 28.3978Z" fill="white"/>
<path d="M14.2518 31.0492C14.7399 31.5374 15.7292 31.3395 16.4615 30.6073C17.1937 29.875 17.3916 28.8857 16.9034 28.3976C16.4153 27.9094 15.4259 28.1073 14.6937 28.8395C13.9615 29.5717 13.7636 30.5611 14.2518 31.0492Z" fill="white"/>
<path d="M22.6487 33.2582C23.1369 33.7463 24.1262 33.5485 24.8584 32.8162C25.5907 32.084 25.7885 31.0947 25.3004 30.6065C24.8122 30.1184 23.8229 30.3162 23.0907 31.0485C22.3584 31.7807 22.1606 32.77 22.6487 33.2582Z" fill="white"/>
</g>
<defs>
<clipPath id="clip0">
<rect width="40" height="40" fill="white"/>
</clipPath>
</defs>
</svg>
