<svg width="40" height="40" viewBox="0 0 40 40" fill="none" xmlns="http://www.w3.org/2000/svg">
<path d="M19.9998 33.3337L7.34621 17.5166C7.01369 17.101 6.84743 16.8931 6.80276 16.6427C6.75809 16.3922 6.84225 16.1397 7.01058 15.6348L9.08814 9.40208C9.52815 8.08204 9.74816 7.42202 10.2719 7.04451C10.7957 6.66699 11.4914 6.66699 12.8829 6.66699H27.1168C28.5082 6.66699 29.204 6.66699 29.7277 7.04451C30.2515 7.42202 30.4715 8.08204 30.9115 9.40208L32.9891 15.6348C33.1574 16.1397 33.2416 16.3922 33.1969 16.6427C33.1522 16.8931 32.986 17.101 32.6535 17.5166L19.9998 33.3337ZM19.9998 33.3337L25.8332 15.0003M19.9998 33.3337L14.1665 15.0003M32.4998 16.667L25.8332 15.0003M25.8332 15.0003L23.3332 8.33366M25.8332 15.0003H14.1665M16.6665 8.33366L14.1665 15.0003M14.1665 15.0003L7.49984 16.667" stroke="white" stroke-width="2" stroke-linecap="round"/>
</svg>
